/* XPM */
static char *a094ec9a3db741e2d8f269ad5e9d7716Ne87YgjdX83Gg9O2[] = {
/* columns rows colors chars-per-pixel */
"48 48 116 2 ",
"   c #05090A",
".  c #0B0D0D",
"X  c #0E120E",
"o  c #0D0F12",
"O  c #0F1111",
"+  c #121414",
"@  c #171916",
"#  c #141619",
"$  c #17191A",
"%  c #1B1C1C",
"&  c #1E211E",
"*  c #20221F",
"=  c #1D1E22",
"-  c #1F2122",
";  c #1E2128",
":  c #232524",
">  c #262827",
",  c #252629",
"<  c #272929",
"1  c #2A2B2C",
"2  c #2F302F",
"3  c #2D2E32",
"4  c #2F3133",
"5  c #2F3138",
"6  c #323335",
"7  c #33343A",
"8  c #36383B",
"9  c #393A3D",
"0  c #373940",
"q  c #3C3D43",
"w  c #3D3F49",
"e  c #423F45",
"r  c #443E48",
"t  c #3F4044",
"y  c #3F404A",
"u  c #424146",
"i  c #484146",
"p  c #45444B",
"a  c #49464D",
"s  c #47494E",
"d  c #49494E",
"f  c #474750",
"g  c #494750",
"h  c #474952",
"j  c #4C4C53",
"k  c #4D4E59",
"l  c #504F56",
"z  c #514F59",
"x  c #4E5056",
"c  c #4E515A",
"v  c #515156",
"b  c #505058",
"n  c #515159",
"m  c #525358",
"M  c #53525A",
"N  c #53535B",
"B  c #54535B",
"V  c #50525E",
"C  c #54525D",
"Z  c #51565C",
"A  c #55545C",
"S  c #56575C",
"D  c #58585F",
"F  c #595A5E",
"G  c #565661",
"H  c #545662",
"J  c #585765",
"K  c #565962",
"L  c #565865",
"P  c #575A64",
"I  c #585860",
"U  c #595961",
"Y  c #595C63",
"T  c #5A5A64",
"R  c #5B5B64",
"E  c #5F5E64",
"W  c #5A5B6B",
"Q  c #5A5C69",
"!  c #5A5B6D",
"~  c #5C5E6E",
"^  c #605E69",
"/  c #5F6065",
"(  c #5E6169",
")  c #5D606A",
"_  c #5F616C",
"`  c #616266",
"'  c #636267",
"]  c #60606C",
"[  c #64646C",
"{  c #67676F",
"}  c #696A6E",
"|  c #656672",
" . c #696972",
".. c #6D6D73",
"X. c #686874",
"o. c #6C6C74",
"O. c #676978",
"+. c #6C6D79",
"@. c #6E7178",
"#. c #6F717C",
"$. c #707078",
"%. c #73737C",
"&. c #73757D",
"*. c #757883",
"=. c #7B7C85",
"-. c #7D7F88",
";. c #7F8083",
":. c #7E8088",
">. c #828187",
",. c #82828A",
"<. c #80808C",
"1. c #888891",
"2. c #93959C",
"3. c #9597A5",
"4. c #9C9CA4",
"5. c #AEAEB8",
/* pixels */
"i a a r a 2 z l B b b C B S b b u c 1 w b j g j b x x g j & @.a h j g b a h 5.p h p 4.t : i u p ",
"i a a a a 2 z l b b b v a l d g < a 1 e j j g x b b x j g & &.h x x Z j c s a ] u p y a > u e u ",
"e e u i a 3 k g v b b j j a i D | g < u j k j b m b j j g & @.x Z j j Y c k p p j h a 3.1 e e r ",
"a l a a j 1 z j x g b j j l a :.u X.1 p g z j g h U u j x - ..j h g j j j j h k h p p j > ^ e u ",
"2 < < : : : d : < < > < : < < < : # @ o : + # : % % + X & : : , 4 < 1 1 < < 3 3 ; : : , : 3 < 6 ",
"! ! T L G c V V b t ) x B b S b 2._ Y | X.+.{ j 5 1 1 7 4 7 q p v l l d E ' E v d 7   Q ~ Q _ _ ",
"g j j j x z j j x 1 L s s s , a g c b b G U B C U < 7 d d d s s d d j j j j j j x b $ c x k j g ",
"j b g g h g j g j 4 Y g s g d [ h j j j j b S S Y < 7 s a d a s a d a d j j j j g Z $ >.x k j b ",
"p S j j j g d g j 1 ) d d j d x c g g j m 4 B d L 1 8 d s d a a s p d d g j j j j g : +.B b j q ",
"d p L j c j h j b 4 ) d d j d x j b Z j j j j b j 1 8 s i s p a a s d d d d p d g q # C j b b | ",
"g g g b j j g j x 4 Q j j j x x j j j m c j x x 2 1 9 j p d u p s p a a d a s d g s O p j b b l ",
"g j s j g b b z c 4 Y x j x j b b D b j b m b g u > 8 j u / p j t p p t u a a a d / + f c b b x ",
"j j j g j m j V L 1 Z b x j g j j B m S m j g x s 1 7 j d >.x p a p / u u p a u s @.o %.b k b b ",
"Z &.h g b c [ 2.< 6 Y ) a m G w u d p x j x j p 9 1 7 ` t s =.u a 3 t w s 3 j U x < + S +.S j E ",
": < 3 6 6 1 % % $ O # $ O X . O $ % # O O . X O X X O & 8 y s < - .   . $ $ # = < : % 1 > : - : ",
"O.O.[ _ Z c V 3.o k h x L h j x c c V p y 2 s K x 3 8 @.&.@.K x h 6 #.| -.h 0 p Y +.J *.~ T - *.",
"g g a a u G u g O u u a d g x x x j x x x 3 Z s j h j s a f a x C 6 $.j j l x 2.g d d d d j : 5 ",
"s a a q a f 9 j . a a j q U l j x j j d K 1 ) j g j j g p p j T S 3 X.j j a ,.g d g p d g g : 7 ",
"a a g g f u j g   k j j g p g j j g d g j 1 ) x x j f u a g j T Y 3 b j b +.j j d j j j a a : 5 ",
"V V I j k S a a O j V x g p j g j g l j b 1 ] b x k j g g j b V L 3 g j x a j b x j l b g g : 8 ",
"Y T ^ T V S 0 j   c L j g a e j l j g j x 3 Y G S b j g g j x S b < g j = T k b d C v l b v - 3 ",
"^ [ J ^ R Y p z O :.S L U z k g b x j z j 7 c b S j b x b c V Z b 6 O Q <.V b j l b j d j d , 3 ",
"J ^ ^ J E T U ` + ' b C z b z k B S V C G < S h 0 b j s g j u g b 6 8  .| G Z b b b b d j d 3 < ",
": < : : > : 1 : . q 8 y 8 9 6 < : < < : > % 2 : $ : : : : : : : & . % : : = : < > < < * : : : + ",
"] $.b j g u g j S ] S u b x Z j f u E ..b j C 8 U K g h j k k j h h p t q q p s x h b : j c c k ",
"j g g | v k k j j x j < g u j h a u a a p i a : Y c b b k j j j j j d s j g d j j g S : j j g g ",
"b j g a [ a k j j k j : g a j j s a a a a i p 1 c Z Z c b j h g j j d j q p &.S j j g : x x c j ",
"b z k j j j a d u x j q t b j x d a a a a a i : t ) g a v Z ) 0 9 6 [ d d j x x j m j < b j b b ",
"x x j j j k g g ` g x u r j j j g j p i a i a : x j j g j j j a j a d j g j g j b b j < j j j c ",
"j g j C k x g d j s 8 6 k j z l j j j a p u a : m x B j j k c j j j g j h j j x b c j 3 b h j j ",
"g g g g b b V V g g j : j j b z j j g g a p a & ; u d j x j j b x j j j j j g j j x j < S p g a ",
"d d g j Z j v j c g f < g k k j j j b j a a u & Y u j g x b b x k x x j j j j j j g g : m a h a ",
"s d j b x j S m @.j 7 : j g g k s h j j g j a : j 8 u g j c b b x m j j / @.s s j p p & x h h p ",
": : < : : ; > 4 8 : 1 % % % : : 4 1 1 : 1 - * X & & * * < ; : - : : : : - & & 1 : - & @ : : > : ",
"t 4 8 c k j x c c c h h ) Q : u p p g a s a h g j g h 8 V h j j h j c j ; / j p } g u u u 9 q j ",
"p / 4 9 8 t t t u u u u p u : 0 g g d a d j b C Z b v 9 G p p q t t t c : L u r p 3 u p u u a a ",
"t 8 s 9 9 q t s p u u u g d - 8 6 a a d d b j x j g l 9 Y a p p t t q t : x p p u u ) p p p a u ",
"p U d q t u p u y u p s d u : w d u a g a b v j j j v < L a p p s y e q < g p u a u a u u p a u ",
"a S p q u u p s p h h a d g : w d a d b b b j v b c C = b s a a p p u y < j p u u u u p u p u a ",
"u U p q u u p p g g a j s j % u d a d s d j j b b S S : Y a a p p u p t : j a a a p p u u p a p ",
"u s x e p g a a j a j h j c : q a t s a a v j b b S G : K u a a p p u u < h a a p p p u u p p d ",
"u v x u p d d d j s g j j x - a d s t a a v x b G S L 1 j S s j s p p u < x y p g a u u p p a p ",
"u 8 v < 7 z E $.&.;.} t $.s & / v v v m v ` @.} u 3 < : S < $ - 2 8 x u : p : : : : < : 1 1 u s ",
"v v a s 9 1 9 I x S L S D S D x s s q + 6 - $ 8 q q 8 u t t 8 a s p s q u s y t 0 t t 8 # q u 8 ",
"e u i i r > r C g p j l U S b b b d < d j j a w x c ] x j > p h p s u s h w p y p q u w < ..r p ",
"i u d d r , z G S G C V B S S m b c < s s u a d a j g a a : a S p p s s p p p p u t u e < >.r a ",
"a i r a a 1 k B C C S C G S S G b b < h j g g d g x g j g : ^ 6 s u t p p p y a h f j 0 > i i i ",
"i i a d a 3 V b S b V S C G G V m g - a j j a j j j j j d & 1.i = Y L a p u h 5 -.j j i < i r a "
};
