/* XPM */
static char *_63d588314ab41d9867604c9308f985bhvDjB7aRd3vYaqKW[] = {
/* columns rows colors chars-per-pixel */
"48 48 207 2 ",
"   c #010101",
".  c #0B0C0C",
"X  c #05090A",
"o  c #0C0F11",
"O  c #0F1214",
"+  c #131314",
"@  c #14161B",
"#  c #171A1B",
"$  c #1B1B1C",
"%  c #171916",
"&  c #331D1E",
"*  c #1F211D",
"=  c #21231F",
"-  c #0F142A",
";  c #1B1D22",
":  c #151925",
">  c #151C3B",
",  c #281F20",
"<  c #1F2223",
"1  c #1E242A",
"2  c #0A243C",
"3  c #1C2436",
"4  c #232424",
"5  c #262827",
"6  c #24252A",
"7  c #282729",
"8  c #26292A",
"9  c #2B2B2C",
"0  c #2F302F",
"q  c #2C2D31",
"w  c #242D36",
"e  c #302E30",
"r  c #2F3133",
"t  c #2B343A",
"y  c #323235",
"u  c #33343A",
"i  c #39363A",
"p  c #36393C",
"a  c #3B3B3C",
"s  c #401D1E",
"d  c #443435",
"f  c #543435",
"g  c #652A2A",
"h  c #161E41",
"j  c #152548",
"k  c #1F2758",
"l  c #15345D",
"z  c #11304F",
"x  c #2E2F41",
"c  c #343C42",
"v  c #3D3D43",
"b  c #3E3F49",
"n  c #232C54",
"m  c #212A5F",
"M  c #2D3A55",
"N  c #333C4B",
"B  c #143C65",
"V  c #23336C",
"C  c #293472",
"Z  c #2A3679",
"A  c #263876",
"S  c #242E68",
"D  c #423E42",
"F  c #423E48",
"G  c #3F4145",
"H  c #35454D",
"J  c #3C444A",
"K  c #364756",
"L  c #24425E",
"P  c #184569",
"I  c #114876",
"U  c #0F436D",
"Y  c #264671",
"T  c #434246",
"R  c #44444B",
"E  c #49464D",
"W  c #47484D",
"Q  c #4A4A4D",
"!  c #484146",
"~  c #464650",
"^  c #464A52",
"/  c #4C4C53",
"(  c #4D4E59",
")  c #484750",
"_  c #504E54",
"`  c #514F59",
"'  c #4E5056",
"]  c #43545E",
"[  c #4D515A",
"{  c #525254",
"}  c #52525B",
"|  c #5B5B5D",
" . c #585659",
".. c #634040",
"X. c #6F5454",
"o. c #4A5B64",
"O. c #545661",
"+. c #575964",
"@. c #5B5B64",
"#. c #5C5D6A",
"$. c #585765",
"%. c #605E69",
"&. c #4C636E",
"*. c #5C6066",
"=. c #5E606B",
"-. c #566064",
";. c #586A74",
":. c #56707D",
">. c #636364",
",. c #64646D",
"<. c #6C6C6C",
"1. c #666769",
"2. c #6C6C74",
"3. c #6C6D79",
"4. c #676978",
"5. c #716E71",
"6. c #6F7277",
"7. c #757575",
"8. c #737373",
"9. c #73737C",
"0. c #7B7B7B",
"q. c #777C7E",
"w. c #843837",
"e. c #893331",
"r. c #AC3D3A",
"t. c #845555",
"y. c #824A4A",
"u. c #A94846",
"i. c #BF4240",
"p. c #9A6A6A",
"a. c #B26F6F",
"s. c #E5504D",
"d. c #EF5350",
"f. c #EF5D5A",
"g. c #E14E4B",
"h. c #EA6D6B",
"j. c #EF7A79",
"k. c #2E3C85",
"l. c #313E8B",
"z. c #184C83",
"x. c #13588E",
"c. c #145388",
"v. c #165A95",
"b. c #274488",
"n. c #344396",
"m. c #2B4C98",
"M. c #1B6299",
"N. c #394CA7",
"B. c #3D4FB0",
"V. c #3E52B5",
"C. c #3757B4",
"Z. c #3951AE",
"A. c #186AAB",
"S. c #1A75BE",
"D. c #2A62B5",
"F. c #236BBA",
"G. c #597481",
"H. c #7A7C86",
"J. c #3A5EC1",
"K. c #1B79C4",
"L. c #1C7CCA",
"P. c #1C75C0",
"I. c #3666C8",
"U. c #2C7AD7",
"Y. c #3173D3",
"T. c #2A70C8",
"R. c #7E8088",
"E. c #1D81D2",
"W. c #1E87DB",
"Q. c #1F8EE6",
"!. c #2985E4",
"~. c #248CE7",
"^. c #2192EE",
"/. c #2195F2",
"(. c #828283",
"). c #8B8B8B",
"_. c #83838B",
"`. c #888C92",
"'. c #8F9090",
"]. c #939393",
"[. c #9A9B9B",
"{. c #94959B",
"}. c #9898A3",
"|. c #A3A2A3",
" X c #ACACAC",
".X c #A9A7A9",
"XX c #B0AFB0",
"oX c #B4B4B4",
"OX c #BCBCBC",
"+X c #AEAEB8",
"@X c #CB8383",
"#X c #EC8888",
"$X c #E49393",
"%X c #EF9A9A",
"&X c #EF9595",
"*X c #C3C3C3",
"=X c #CBCBCB",
"-X c #D4D4D4",
";X c #DDDDDD",
":X c #E0DFE0",
">X c #E3E3E3",
",X c #ECECEC",
"<X c #F4F4F4",
"1X c white",
"2X c #FEFEFE",
"3X c #FDFDFD",
"4X c #FDFDFD",
/* pixels */
"! E F ! E y ( ` } { } } } O.} ` D ` 9 v ' / / / } / ( / / * 6.W ^ ( W [ W / +XW W R }.R 4 T T ! ",
"! E E E E e ( _ ` } _ _ / _ W / 6 W 9 y u u y u i u p ) E $ 9.^ ' [ } ' ' T ) =.b R R W 5 ! D T ",
"D T T ! E 9 [ / _ } { / / E !  .{ T / |.-X-X-X-X-X-XOX<.Q * 2.(  ./ ^ @.} ( ) R / ^ R }.8 D D D ",
"E _ E E / 9 ( / / / } / ) _ W $.[.-X2X2X2X2X2X2X2X2X2X2X,X.X .W Q ^ ^ ( / ^ ) ( W R R / 9 @.T T ",
"r 8 7 4 4 4 W 4 5 5 5 8 4 4 a OX2X2X2X2X2X2X2X2X2X2X2X2X2X2X>X| 9 8 0 9 9 9 q q < 4 4 6 4 9 6 y ",
"#.#.$.O.O.} } } [ G =./ { G [.2X2X2X2X2X2X2X2X2X2X2X2X2X2X2X2X-Xp ] / Q | >.@._ / y X #.=.=.,.#.",
"/ / / / ( ` ( / ^ 0 +.W T ' ,X2X2X2X2X2X2X2X2X<X2X2X2X2X2X2X2X2Xp.H / / / / / / / } @ ( ( ( ( W ",
"/ ( / Q ^ ) ^ / ( r @.W y XX2X2X2X2X2X2X2X2X;X).2X2X2X2X2X2X2X2X>XQ E / / / / / / } @ _.[ / / } ",
"R } ( / ^ / W / / 9 *./ y XX|.7.7.7.7.8.7.0.*X(.).7.7.7.7.7.7.0.-XQ Q Q / / / / / Q 4 3.} ( / v ",
"W R +./ / / ) / ` r #.W y XX:X.     a >.  { :X).oX  i >.      [.>XQ W Q Q E W / / b @ } / } } ,.",
") ) Q } / / / / [ r #.^ G 0.-X.     D 1.  Q >XoX[.  D 1.      |. XT ! W W W E ) W W O R / } } _ ",
"/ / W / / } / [ } r +.{ W D  X X .      X -X[.{ ;Xa       9 0.=X' v T G T W ! W Q @.O ) ' ` ` ` ",
") / / / / ` ( ` O.9 } [ / G ].4X,X).5.Q 7.OX% % 7.XXQ >.).oX2X-Xa R *.T R W R ! E 6.o 9.} [ ` { ",
"` H.^ ^ ` ( ,.{.8 y @.,.T T *X,X .'.=XOX<X-XXX*XOX<X=XOX*Xy *X-X<.4 T b W q / @.' 6 +  .9.} / @.",
"4 4 q y y 9 $ ; @ O + % o p *X].  <.8.(.<.(.0.7.(.5.0.0.0.. a =X<.X X . # @ @ $ 6 < $ 9 5 4 $ < ",
"4.4.,.=.} [ [ }.O ' ^ c H 8 ].-X).|.0.<X0.<X-X(.<X7.:XoX0. .-XOXa c H ,.H.W c R #.3.O.H.=.@.< H.",
"^ W E Q R O.D ) O J t ;.] 1 ! XX;XoX{ -X8.4X;X).4X7.-X(.5.;XOX7.* H G.H R ' / {./ W W E Q / 4 x ",
"W E Q v W R v / . J t :.8     y |.=X>X|.{ '.(.{ '.Q ).-X;XXX| .   O &.K p ^ _./ / W E E E ) 4 r ",
"W ) E E R F / ) o G 8 K :.H #   o { ].OXOXOX*XOXOXOXOX|.>.% X X u o.&.; u 6.( / Q / / / R / 4 u ",
"} ` $./ } } W W O p K &.H [ '.1.0   Q 5 * % Q { = * * ! = % ! ).6.c ] &.t R / / / ( / _ / / < e ",
"#.$.%.$.} $.v / . J : n M o.o.q.[.).p { 0.Q 9 = Q 7.*.y 8.).`.-.] K n > O @./ } / } / ` } _ < q ",
"%.,.$.%.@.@.G } O H n.I.m.v.L.v.L ] 6.p + 0.'.].7.p * 1.| K P L.A.z.I.B.n / _ / / { / Q Q / 1 q ",
"$.%.%.$.@.@.@.*.o k.I./.L.2 L./.^.D.O p >.y oXOX5.>.p 8 B ~././.z x./.U.V.t } ( } } } / / / q 9 ",
"4 7 4 4 4 5 5 4 j D.S.~.Q.l U./.^.I [ = a { ,X,X X0 4 W L ~././.A A./.K.F.A 1 8 7 5 4 4 4 4 * % ",
",.5.} / ) ! ) x L.K.v.I v.b.U./.W.# 5 Q |.$ =X<X{ >.0.= 9 I /.^.N.z.x.z.A.^.z ! / ^ [ 4 ^ ( ( / ",
"/ / ) ,./ ( J I /.W.x.B > m V F.S.H Q ].| * <.).a 0 |.Q 1.P L.b.m j 2 x.S./.S.c / /  .4 / / / / ",
"` ( / W 2.W t /./.c.L.l b.Y.Y.v.l t 0 5.5.0 >.! >.Q (.a ^ : c.F.U.C.h L.B /./.P W / W 4 { / / } ",
"` / ( / / / 3 ^././.v.k.Y./././.K.8 0 7.|.= .XOX{ >.[.0 H B /././.~.B.l Q././.U W } / 7 } ( } _ ",
"} ( / / Q / 6 b.Y.Y.A k.Y./././.L.H W | { a ].).0.5 <.i ;.U ^././.!.V.h I.Y.D.3 / } / 5 / ^ / } ",
"/ Q / [ / ( R - N.V.l.C V.U././.L.w 0 + Q 9 0.7.| D * $ R P /./.!.J.l.Z V.B.k u ( / / q } ) / / ",
"E W / E [ } ( b w Z k.S n.V.J.U.F.H { o   5 XXOX|   X i ] b.U.I.V.N.n n.C M 9 ^ / / ^ 7 O.R / E ",
"E ) / / ` ` / / / b 6 : @ > Z Z Z - ' 4 + . = 4 o + * W < C Z A n @ 1 > p ) / / / / / 4 } W ) Q ",
"W Q / } ' / } } 6./ p 4 9 $ [.-Xa 4 4 y y 9 7 7 e e y 7 , 6 OX-X9 ; / / @.9.W ^ / E W * ( W ^ W ",
"4 4 5 4 4 4 5 y p 4 4 $ # % >.4X*XD D D D D D D D D D D D 0.<X|., ; 4 4 4 * $ 5 4 = $ % 4 4 4 4 ",
"J r y O.( ( ' [ / ( ^ W } 7 5.4X*XD D i , + + $ + ; e D D 0.4X|.e c [ ^ 4 +./ W <./ b T T v b / ",
"T *.r p p v b b R R J F 7 y *X4X .D D D e + + 7 + 4 d D D D ;X2X_ 4 G [ 4 +.T F R q T R R T W ! ",
"T c W i v v J ! J R F v 4 i *X4X .d ! D D = # 7 $ i D D D D :X4X_ 4 y b 4 / R J T R #.R T R ! R ",
"!  ./ a v T R W R R ! v $ 5.4X;X_ D T D e % R Q % 7 v D D D .X4X X4 4 v 5 ( R R R ! W D T R R R ",
"W $.W v T T J T R ) ) v $ 7.4X.XD D F e 4 . T / + $ 9 D D D | 4XXX4 , b 7 ( R R R b T R R R R R ",
"R  .W a T R W T / E ~ / e ! oX|.D i 7 = $ # / ( i + , 4 e D | *X5.7 D D 4 / R ! W ! R G R ! R W ",
"T Q ' b ! / E E ) R / / / y @.| i . i 0 % W { _ / 9 = a # 4 ! (.6 R R D 7 ^ R W R ! ! R G R W W ",
"W { / D R Q Q E / / / ! v q 0.=X.X  XX8.9 _ / } } Q Q  X! { =XOX4 y y D 9 ( R R ^ W G R ! R ! R ",
"T u / 9 y } >.3.9.p.E w.u.u.p.X.| >.'.{ | >.2.2.W 9 y 8.).Q { p.u.u.r.f , T 4 4 4 4 6 4 9 9 J Q ",
"{ ' W Q a 9 u $.! g s.f.#X%X%X@XX.[.-X,X| < @ p b a *X,X|.7.p.%X%X&Xh.d.r.d b v a G v p # b T u ",
"T T ! ! F 7 F ` & d.d.j.%X%X%X%Xp.8.*X.XQ / ! b / T ).*X|.d #X%X%X%X&Xd.d.e.v ~ R v F v 5 2.F F ",
"! T E E F 6 ( v i.s.s.h.$X$X$X$Xa.f t.X.e.9 W E v g w.t.X...$X$X$X$Xj.s.g.g.& F R J D D 9 (.D E ",
"E ! F Q E e ( E i y u y y y y y e q # q q y Q ) R r r q 9 + i , q 8 6 8 9 9 q W ) ~ / v 7 E ! Q ",
"E ! E Q ) e ` ` O.` `  .O.O.O. .( / 4 ) / ^ W / / ' / ^ / $ `.F : @.+.~ W F ^ r H./ _ F 7 F D E "
};
