/* XPM */
static char *_1580_9ceb6991e1917715a961626f1f669f6b78360b1a8b3fbde03b2b8f4f7effc2e2[] = {
/* columns rows colors chars-per-pixel */
"48 48 69 1 ",
"  c #000000",
". c #05090A",
"X c #0B0B0B",
"o c #0D110F",
"O c #0E0F11",
"+ c #0F1012",
"@ c #141414",
"# c #171915",
"$ c #141519",
"% c #171819",
"& c #1C1C1C",
"* c #1E201F",
"= c #1D1D21",
"- c #1F2121",
"; c #242424",
": c #262827",
"> c #252629",
", c #27292A",
"< c #2C2C2C",
"1 c #2F302F",
"2 c #2D2D32",
"3 c #302F32",
"4 c #2F3033",
"5 c #333333",
"6 c #35353A",
"7 c #39363C",
"8 c #37383C",
"9 c #3A3A3C",
"0 c #403A3F",
"q c #373741",
"w c #3C3740",
"e c #363941",
"r c #3C3C43",
"t c #423F44",
"y c #3E4046",
"u c #424145",
"i c #45444B",
"p c #49464C",
"a c #47484E",
"s c #49494E",
"d c #474750",
"f c #474951",
"g c #4B4B53",
"h c #4D4E59",
"j c #504E55",
"k c #514F59",
"l c #4D5057",
"z c #4E515A",
"x c #515055",
"c c #52525B",
"v c #59595C",
"b c #545662",
"n c #565864",
"m c #5B5B64",
"M c #5C5D6B",
"N c #605E69",
"B c #5E606B",
"V c #626167",
"C c #64646C",
"Z c #6C6D74",
"A c #676978",
"S c #696B78",
"D c #6F707B",
"F c #73747D",
"G c #757682",
"H c #7E8088",
"J c #9696A0",
"K c #9C9CA4",
"L c #AEAEB8",
/* pixels */
"ipttp5kjcjcccvcktj<rgfsgxhlff*ZsagfcifLifiKy;uup",
"tpppp5kjcxxjggpp>i>rafifggfds&FsllcllafVtitf:utu",
"tuupp2kgxccggiivCi>riiiissidi*CglffmcciidgfJ:utt",
"pjppg<kgggcfggiGrm>wriryws9yi-Viiihffffkfiig:Ntu",
"3,:;;;s;:::,;;;;&$@.%+@%%@oX%-*=<>,,,<22;;>>;<;6",
"MMnnbkckzymffdaiFfihkcgw>-;,;,48uuiivVmjf6.MMBBB",
"dhgghkhgl<biyr=69w,;3irri&,2<6687rtisggggc$hhhhs",
"hjgdddggg<zr999g2;-;=<<;<&;*::58687tisgggc%Hzhgl",
"uchgsssgg>cw878>*:;;:#@#%&&;:::<7779tssfhf;Zchh9",
"sivhhjiff<g9982;;;;;<&@@@%*<:>;;<757rriifr$cgcxA",
"ffskhfdfa,dew97:;<<;;:&&%%:<<::;<3377rtiiiOihhjj",
"ggihgjgdi,ir79<,:<::<1:#&:<:;<<3:&<<37wuiV@slxcj",
"sjhfggiiy-re8<@:<<<<511*;111<<<1#@;;5679uZOFzchc",
"cFffhgcF=>6;-&@&<<<05551;1<1313<@&:>:5rfi>@vFbhv",
";><52;%@+O$;;;@@;50:5500&515550&&<<:;<<$;-%<,---",
"ASCBhdyFX,;;,<,&#151501X +1510<;1<:,::<8dMzGBn-G",
"dsdsrd36X*;;::11<;009;X   .*75;51<:<;;;p00tudg;6",
"isswrq2qX;;:1151010<X       X+5511<:::1577tiig;5",
"sdstr578#;;<:10157<          X1155<:<<<08wtiig-5",
"kcbdit66@<:1115550#           &515511;#097tifg-6",
"NMmcit27X1;:101150            .;1100*#&<9rrifj-2",
"NNMcpp3rX0#*55559@             X50<&&#@*9wrrus-2",
"mNmkpitpX;@#*1195               &;***&;:6rr9is2,",
";:;=&&;@@;*;:*:1X               X<10<3:;><&&&;;@",
"NZki85>-;:<50501.               o115151:,9w&ufhh",
"ggibww,=;::55510.               #51511:;,9y&risf",
"kgiwh62;::15005pX               #515511;:05=ufgj",
"khgt78>-:::1511uX               #555111;<98&iihk",
"chdr7w,-;:11595tX               #9509971<u9&riik",
"ffiirw,;::11955t.               .<u00uu70y8;trfg",
"fsirrrr>:115059#                .;15<11::68&trpp",
"ssiurr2-::115557.               o551155<<68&tttp",
"psiiw62-;><1555tX               @<<<111<<56#trii",
";;;&&&%-;,11755u+               @555<551<5#@#&;;",
"y44yrq2-;<<1555uX               @151<11:<513557f",
"ym24<2-;;,<<911uX               @5175551<05568tt",
"u8u<22,;:<55595s+               .575755557d528rt",
"ivu2252;:1159591                 *55115::26365rt",
"icy5532&*<11551<.               X5115171<76338ri",
"ivr526,=*<555550%               X1111111<73367ri",
"iss337<&*<110100%               X5515571195336tt",
"igi667<;:111011u%               X155551<<55568ri",
"u5t->t7&;1119510%               X5555551<7&&=;9i",
"xgt7<==;*101551u%               X555555110<,@586",
"ut065&<;:1155590.               X;1111513232=cru",
"uu005&0&#:1:511*                 11533512533=C0u",
"tt070*1;::111110@               X1151531<5w2#70p",
"pt071*0#***:**:1X               X;;:;<:;;373&70p"
};
