/* XPM */
static char *_9af7543c12c40678db2a0af002b264cpxpKbUP5xu2x95wD[] = {
/* columns rows colors chars-per-pixel */
"48 48 212 2 ",
"   c #090A0A",
".  c #180B0A",
"X  c #1D190C",
"o  c #0F0F11",
"O  c #121414",
"+  c #15161A",
"@  c #1B1C1C",
"#  c #181817",
"$  c #110E10",
"%  c #240B06",
"&  c #2A0C07",
"*  c #240B07",
"=  c #380B07",
"-  c #35130C",
";  c #221D1E",
":  c #271917",
">  c #28170D",
",  c #1F211D",
"<  c #2A2B14",
"1  c #262718",
"2  c #362812",
"3  c #3A3C16",
"4  c #323519",
"5  c #37391A",
"6  c #302A12",
"7  c #0E1D29",
"8  c #1A1C21",
"9  c #241E20",
"0  c #0E202E",
"q  c #1F2122",
"w  c #132A39",
"e  c #232424",
"r  c #262826",
"t  c #252629",
"y  c #2C2629",
"u  c #272929",
"i  c #2A2B2C",
"p  c #2B2624",
"a  c #332A2E",
"s  c #342428",
"d  c #2F312E",
"f  c #373828",
"g  c #2D2E32",
"h  c #222E39",
"j  c #362E31",
"k  c #392F33",
"l  c #2F3134",
"z  c #323334",
"x  c #3B3234",
"c  c #333439",
"v  c #36383B",
"b  c #3B3A3D",
"n  c #3B3738",
"m  c #4C140D",
"M  c #47140B",
"N  c #5C160E",
"B  c #54140C",
"V  c #4B1912",
"C  c #67180F",
"Z  c #68180F",
"A  c #64170F",
"S  c #442912",
"D  c #4D2F19",
"F  c #433A3C",
"G  c #503022",
"H  c #633F30",
"J  c #3D401D",
"K  c #3C4630",
"L  c #474A1D",
"P  c #53531F",
"I  c #4E531F",
"U  c #434523",
"Y  c #4C4D23",
"T  c #4B4B2A",
"R  c #4D512B",
"E  c #535522",
"W  c #555A24",
"Q  c #595B23",
"!  c #5B5B29",
"~  c #474735",
"^  c #585836",
"/  c #5F4C2F",
"(  c #6C5036",
")  c #5D612A",
"_  c #5D6224",
"`  c #646524",
"'  c #656826",
"]  c #61672A",
"[  c #646A29",
"{  c #6B6F29",
"}  c #6C6A29",
"|  c #746D2D",
" . c #6D732B",
".. c #74752A",
"X. c #747B2D",
"o. c #797A2B",
"O. c #777A33",
"+. c #726638",
"@. c #0C314B",
"#. c #0D3958",
"$. c #0E3752",
"%. c #12344B",
"&. c #3D3D43",
"*. c #3D3F49",
"=. c #423F44",
"-. c #443E48",
";. c #733F44",
":. c #3F4044",
">. c #2E514F",
",. c #434146",
"<. c #4A4144",
"1. c #44444B",
"2. c #49464D",
"3. c #47494E",
"4. c #49494E",
"5. c #464651",
"6. c #484750",
"7. c #474A52",
"8. c #4C4C53",
"9. c #4D4E59",
"0. c #504E55",
"q. c #554E56",
"w. c #4E5056",
"e. c #4E515A",
"r. c #515155",
"t. c #52525B",
"y. c #56585E",
"u. c #595A5E",
"i. c #4C534B",
"p. c #645C44",
"a. c #71474D",
"s. c #456148",
"d. c #666441",
"f. c #76694D",
"g. c #7A7656",
"h. c #75734E",
"j. c #555561",
"k. c #575963",
"l. c #5B5B64",
"z. c #5C5C6A",
"x. c #585765",
"c. c #465662",
"v. c #605E69",
"b. c #5E606B",
"n. c #5F6065",
"m. c #64646C",
"M. c #666669",
"N. c #6B6B73",
"B. c #6A6B78",
"V. c #6F7177",
"C. c #73747C",
"Z. c #6E746F",
"A. c #857134",
"S. c #843F45",
"D. c #894646",
"F. c #99474E",
"G. c #994C54",
"H. c #98525A",
"J. c #894F58",
"K. c #A34B53",
"L. c #AF4E55",
"P. c #BB525C",
"I. c #A6564E",
"U. c #877A5A",
"Y. c #996741",
"T. c #C5565D",
"R. c #CC5661",
"E. c #CF5862",
"W. c #D35863",
"Q. c #D15762",
"!. c #7D812E",
"~. c #7B8331",
"^. c #818631",
"/. c #848C33",
"(. c #879035",
"). c #899236",
"_. c #848257",
"`. c #8A885A",
"'. c #918C63",
"]. c #999568",
"[. c #8E8964",
"{. c #A29F6F",
"}. c #A8A86F",
"|. c #A9A476",
" X c #B2AB7E",
".X c #BDBF79",
"XX c #C2C47C",
"oX c #797B85",
"OX c #7F8086",
"+X c #81828A",
"@X c #8D8D97",
"#X c #BCB484",
"$X c #9999A2",
"%X c #AEAEB8",
"&X c #C3BB89",
"*X c #CACC82",
"=X c #C9C38C",
"-X c #C9C785",
";X c #D3D38B",
":X c #CDC691",
">X c #D1CA93",
",X c #D8D790",
"<X c #D7D196",
"1X c #E2DE99",
"2X c #E7E29E",
"3X c #E3DBA1",
"4X c #F4EBAC",
"5X c #F3EAAB",
"6X c #F9EFB0",
"7X c #F9F0B0",
"8X c #EDE5A7",
"9X c gray83",
/* pixels */
"1.2.-.2.2.a e.9.t.0.t.y.t.t.t.9.,.t.i &.r.8.4.8.r.9.w.8.4., C.1.3.8.7.e.1.8.%X1.7.,.$X,.r =.,.<.",
"<.1.2.2.2.a e.r.t.t.q.8.8.q.1.8.t 2.i -.8.8.8.9.t.0.9.8.4.@ C.7.w.e.t.w.w.3.1.m.:.5.1.7.r ,.=.,.",
"=.,.,.,.2.i e.8.8.r.t.8.4.2.,.u.m.7.u :.9.8.8.t.r.9.9.8.8., V.e.t.8.8.k.e.9.1.1.6.7.5.$Xi =.=.,.",
"2.q.2.2.8.i 9.8.9.8.r.8.8.9.2.+X1.B.i 1.4.9.8.9.4.u.,.8.w.e N.8.1.8.9.8.8.8.7.9.7.1.1.8.u l.=.,.",
"d i e e e e 4.e r r r u e e i t e O # $ 8 O O 8 , , O o @ q q e c i i i i u g i e e e t q g t z ",
"z.z.x.k.j.t.t.t.w.,.b.8.r.t.y.9.$Xz.x.l.x.t.8.b e q q d g a.G.H.a.t.0.8.u.M.l.q.8.c   z.z.b.m.b.",
"8.8.8.6.e.9.9.8.w.i k.4.8.1.a H.G.;.~ ) ] ' {  . .[ W P D.E.E.W.Q.P.H.J.q.8.2.8.8.t.+ 9.e.9.9.1.",
"9.9.8.8.3.6.8.6.9.d k.1.v f / L.T.D.O.).).).).).).!.~.A.T.W.W.W.W.W.W.W.R.F.q.q.8.t.+ OXe.8.9.w.",
",.j.9.8.4.4.2.8.8.i ,.Y X.).)./.O.^.).).).).).).).X.o.o.Y.R.W.W.Q.P.R.Q.W.W.K.2.8.8.q B.t.9.9.&.",
"6.,.y.9.9.8.8.8.9.1 [ (.).).).).).).).).).).).).).!.o.o.o.A.T.W.T.S.Q.Q.W.W.W.;.8.&.+ t.8.9.t.m.",
"2.8.4.r.8.8.8.9.i ~.).).).).).).).).).).).).).).).).!.o.o.o.| I.T.S.T.K.L.Q.Q.S.1.1.O 2.9.0.t.0.",
"8.8.1.9.8.9.0.1.L ).).).).).).).).).).).).).).).).).).^.o.o.o.| S.F.W.T.T.Q.W.K.<.m.O 1.r.r.0.t.",
"6.9.9.8.8.9.w.u  .).).).).).).).).).).).).(./.~.~.X...X.o.o.o.o.o.} F.Q.W.W.W.;.2.V.o C.t.w.t.r.",
"t.C.7.7.9.9.m.i E _ ) ! _ !./.).).).(.^.O.{ Q +.h.U.g.h.d.! | o.o.o.} D.T.R.K.q.9.e O y.C.t.8.k.",
"e e g d z i @ p.|.=X>X#X|.R P /.).).O.o.] d.#X5X6X6X7X7X7X=X+.R o.o.o...( H 9 8 t e # i u e q 8 ",
"B.B.m.b.t.z  X7X7X7X7X7X7X4X].E (./.o.! R 4X7X7X6X6X7X7X7X7X4XU.P o.o.o.A.P c :.l.V.x.oXz.k.q oX",
"7.4.4.2.&.].5X6X7X7X7X7X7X6X8X^ o./.o.T }.7X7X7X7X7X7X7X7X7X7X=XY ..o...P 3 u OX7.3.3.2.4.8.e c ",
"3.1.4.&.9 :X5Xh.f.7X7X7X7X6X6Xg._ ).{ ^ XX7X7X7X7X}.d.<X7X7X7X,X^ ' o.^.~.o.~.L d 7.3.4.1.8.e c ",
"1.4.2.2.&.[.8X{.].7X7X7X7X7X5X^ ..).o.R XX2X7X7X7X=X'.3X7X7X2X-XR { X.^.<   6 ~.1 8.8.8.1.8.e g ",
"t.t.y.9.9.z }.4X7X7X7X7X7X4X].W X.).^.Y h.XX2X7X7X7X7X7X7X2X*X].Y o.o./.<   X  .u 0.8.0.8.8.q c ",
"l.z.l.z.t.t.i ^ }.*X,X-X{.L P L J )./...L `.XX;X,X,X,X;X*XXX`.Y ..o./.).L J ..4 b t.8.0.9.9.q g ",
"v.m.z.l.l.z.,.6.< J 4 L ` o.o. . .).o.o.o.P J `.XXXXXXXX].T P X.o./.).~._ E r *.9.0.9.6.4.8.t g ",
"l.v.z.x.l.l.l.l.2 o.o.o...| } ` ' ` ' { ..o...' P I I I ` ..!.X./.).).).J 8.t.9.t.t.t.6.q.2.g i ",
"e e p 9 e r i r X ` ! ! 6 . & % >  X|.'.~ - D P ..o.o.o.o.o.X.!.~.W ).W , q t i e u r 1 e r , O ",
"m.B.t.8.6.1.6.8.y . U.5X:X- = M G 6X6X4X XN A m 2 ` o.o.o.o.^./.[ J I d b :.,.1.w.8.9.e 9.9.e.8.",
"8.8.6.m.9.9.8.v . = p.=X#XV N C A H U.f.G Z Z Z A > o.o.o.^.).^.< < v 1.4.3.4.8.8.4.y.e 4.8.8.4.",
"9.8.8.2.m.5.9.# = = = B C Z Z Z A N A A Z Z Z Z Z & ..o./.).).L + :.4.8.:.3.C.y.8.8.4.e w.0.9.0.",
"t.0.9.8.8.8.2.i > >X&XG Z Z Z N U.<X#X( A Z Z Z m 2 o./.).(.3   c l M.4.4.8.w.r.8.t.8.e t.9.t.e.",
"0.9.9.8.8.0.2.8.1.~ _.G M M M G U.`.'.h.2 S S 3 Q ~.).).X.I < z 4.2.4.4.8.2.8.8.t.0.8.u 9.8.4.r.",
"8.8.4.0.9.9.4.2.7.l 4 _  . . .o.o.o...o.X.!.^.^./.).)./.o.P v 4.9.8.8.8.1.8.8.9.9.w.8.g t.7.9.4.",
"4.2.4.8.e.t.t.^  .~ ~ , d < 3 E _  . .X.X.o.O.o.!.~.O.{ f b w.i.w.8.9.8.8.8.8.8.8.8.8.e y.1.4.3.",
"1.8.4.9.e.9.,.) U ]  .X.R , x =.<.F y e @ e y y @ # 1 ; c 9.t.r.0.w.8.9.8.8.8.8.8.8.8.e t.2.6.8.",
"1.4.9.r.w.7.t.K R ~ J E [ [ ) J d <.; a x j k k k ; k a e 9.t.r.r.t.8.8.n.C.1.8.8.1.1., e.7.3.1.",
"e u t 1 e e e z n f _ 1 5 ~.)./.I 4 4 p k j k F s 9 k k o q e 8 e e e e e , @ u e q q + e e r e ",
"*.z c c.9.9.e.c.w.z f 5 ..~ ) ] G z j ; t ; 9 9 y a k k $ 6.8.9.e.7.e.7.q k.8.5.N.8.:.,.,.b :.9.",
",.k.z b b &.=.:.:.,.*.f U F <.F x x j j j j k k k k k k $ &.1.=.:.:.:.e.e k.,.1.,.d ,.,.1.1.1.,.",
",.b 1.b K *.:.5.:.,.,.=.b a j a a a j i a a a a a a a a $ -.1.1.:.:.&.:.e 9.,.,.,.1.n.1.,.1.1.,.",
",.k.4.,.*.-.:.1.1.1.1.4.4.t # 8 0 0 7 &.Z.F 7 0 7 + i ; g 2.1.1.1.,.=.&.u 8.2.1.1.,.1.1.,.1.1.1.",
"1.u.2.b =.,.1.1.1.7.8.1.1.8.8 K s.>.#.e.9XZ.s.>.>.$.%.8 e.1.6.1.1.1.,.*.u 8.1.1.1.=.1.,.,.1.1.2.",
"1.u.1.b ,.,.1.1.6.8.1.8.7.9.q w @.@.@.w 3.3.$.#.#.#.g 9 k.2.2.1.1.,.1.,.e 8.1.1.1.1.,.,.1.1.2.1.",
"1.4.w.=.1.4.2.4.8.1.8.3.8.s M B B & * . - V B - * * p q y.1.1.2.1.1.,.,.i 7.6.1.1.1.1.1.=.1.2.1.",
"1.r.8.,.1.4.4.4.8.7.4.8.j M M = & * % = B m - & > & : e 8.u.4.8.1.1.1.,.u e.,.1.4.2.,.1.1.1.1.1.",
",.v 8.i c r.n.V.oXoXM.,.N.x # <.b =.b n x F 2.<.a ; q e y.u @ 8 d v r.1.q 1.t t p e e e i i 1.3.",
"r.i.2.4.b i c x.8.y.u.k.y.y.u.q.1.8.K O c q + v &.*.b ,.:.:.v 1.1.1.1.&.,.3.:.&.b *.&.v @ b ,.c ",
",.,.1.<.1.t -.t.6.-.8.0.y.t.t.t.r.8.t 3.8.9.1.*.r.0.m.t.8.t :.7.3.1.1.3.7.*.5.:.:.&.,.&.i N.=.<.",
"<.,.2.2.-.t 9.j.x.j.t.y.t.y.y.t.w.q.t 3.2.,.2.4.1.8.8.1.8.q 7.j.3.1.1.3.5.:.1.1.5.:.-.&.u +X<.2.",
"2.<.-.2.8.y 8.t.t.t.y.t.j.t.t.t.w.9.u 8.8.4.4.4.4.9.8.2.8.1 z.c 3.,.:.1.-.1.:.2.7.5.8.&.p 2.,.2.",
"<.-.2.q.2.j t.t.t.t.9.y.j.x.t.y.t.8.q 1.8.8.2.8.8.8.8.8.4.# @X=.8 k.k.3.5.1.7.c oX8.8.1.e -.=.2."
};
