/* XPM */
static char *result[] = {
/* columns rows colors chars-per-pixel */
"48 48 63 1 ",
"  c #020101",
". c #080705",
"X c #090807",
"o c #0D0C0A",
"O c #16130F",
"+ c #191612",
"@ c #1C1914",
"# c #241F19",
"$ c #2A241D",
"% c #352E24",
"& c #433A2F",
"* c #4A3D2F",
"= c #483E32",
"- c #4C4237",
"; c #4C4338",
": c #514739",
"> c #5A4E3F",
", c #60513E",
"< c #5B5041",
"1 c #645541",
"2 c #685540",
"3 c #665847",
"4 c #6A5844",
"5 c #655A4C",
"6 c #6E5F4C",
"7 c #6F604B",
"8 c #72634E",
"9 c #6D6151",
"0 c #766652",
"q c #7D6D56",
"w c #776A58",
"e c #7E6E59",
"r c #816E57",
"t c #816F59",
"y c #837057",
"u c #84735D",
"i c #88745B",
"p c #8D795F",
"a c #857560",
"s c #8A7760",
"d c #8C7A62",
"f c #8E7E69",
"g c #927E64",
"h c #907F69",
"j c #958065",
"k c #988064",
"l c #95826B",
"z c #9B856A",
"x c #9E896E",
"c c #978570",
"v c #9D8A71",
"b c #9F8D78",
"n c #A08A6F",
"m c #A28D72",
"M c #A18F7A",
"N c #A49076",
"B c #A69279",
"V c #AA957C",
"C c #AB987F",
"Z c #AE9A81",
"A c #B19E84",
"S c #B4A087",
"D c #BDAC95",
/* pixels */
"zmmmmmNmNnNNnNNmmmmNmmmmmmNmmmmmmNmmmNNmmNmmmmmn",
"zmm.mmmmmNmmmmNNNmmmmmmVmNmmmNmNmmmNmmmmmmNmnmmZ",
"zm=mBZAZCAZCCCCCCCCCACZAACAACACCZZZZZCZNZCmmNmmZ",
"l+hXgmBmBCCVNmNBkVCCCCBmmCCCACCVmZZVmNmmNmmN NmC",
"zCCDtZZZZZZZZZZZCCZZZZZZZZZZCCACZZZZZZZZ>*ZZCNmA",
"zACD6Zw;CCZZZZZBCAZZZZZZZZZZACCAZZZZZZZZZA ZVmmC",
"kAADzriiiiiu-*770aaaaaaa6686utpiauui6ta666NNZNmA",
"kZCDki8oipiiu*7uiNMaalaasshummmnanaa8gmu86mmZmmZ",
"zZZDkkrripniiC7uaMMaNNmBruhBZmAAMmvdgZVCi7mZZmNZ",
"zZZDniryiknnppCiaMMBNMBmdmmVVAAAsmmhgVVVu7NBZmmZ",
"gZZDziringknnjjCacMMNmmBhmmVZSSSmmmvgVVCa6mZZNmZ",
"zZZDnpriinpknxjjVahsmBNNhNmZZSSSmMvmgZVVi6mZZmZZ",
"zZZDni,iii&pknnjgMidsMBNbnnBZAAAmZvmgVZVu6mZZmmZ",
"gZMDzi,2iiiokknngpMedNMNnnnZZASAvZmMgVVVu6mZAmNZ",
"zZZDni,r,kii&kkxngsl8MNMbnnZZSSSnZmBhVVVi6MZZmNZ",
"zAZDgg,r,,miyxjjnngshssBcnnZZSSSmZnNgVVZi6NZZmmZ",
"nCCDzi<j0qqmiimkknngil8sflvZVSSSMZvmhVVVa6mmZmmZ",
"zCCDzj3jeege iizjjnngVlpilvVVSSSvZmmgVVVa6mNA3mA",
"zCVDzz,je.gk,iiimkknnglm7amNZSSSvZvmgCVCi6mNZ:CZ",
"zCVDzz,je>mmt1#iinjknngVmuimVASSmZvmgZVVa8mmZmmZ",
"zCCDzz,jeONnrrr.iingjnnjxVsgvVASvZnmgVVVi0NBZBBA",
"zCCDzz,zyjmNrrlr iinjknngVcahmSSMZnMgVZVuemZZBmZ",
"nCCDzz,iqjmNrizxq@iinjjnvgx93mmSnZmmgZVVawNZZmmZ",
"nCCDxx,ejjNBrdvVprmpinjjmndZa$mZnZmmgVVZutmZZ mA",
"zCCDnn,rjdNCyjVVzdynzimkgnmggC$nmZnmhVVViyNCCgmC",
"zCCDnz,rjzNCejCCmzzenpinjknnggC:cmmngVVViimASmNS",
"zCCDkz,pjlNCylCCZNVyyyiinjjnnggC3nnmgVZVitNCCBmC",
"zCSDzx,jjmmSejZCZZVxreniinjnnngnZwmngZVVstNCCVBC",
"zACDzz,idmNCqlZCZVClxNtmiinknnngBZ68gVZVutMZAVNC",
"zCADzz,ijmNNejZCVZZzzVrrnpinknnngBX6tZhZstNVCNmC",
"zCCDzz,jdzNNegCCZVCczVBqynpinknnngh.6hhZtrNnCNNC",
"zCCDzz,jgjmNydZZVCVzzNVNyynkinkmnngntshZu8NNCmmC",
"nZZDzz,jjmmNyjVCCCCnVVVSgyynningmmngBZ*ha6NmZmmZ",
"zZZDzz,jjmmNyjBCZVCgBBVNmggynninmnnngCZt66NmZNmZ",
"zZZDzz<djvNNejBCCVZmBVBNhnmgtnzunmnmnpZZ66BNZmmZ",
"zZZDxz1jjvmNedVCCVVgVBVgNmNgnrmninnnmn.iZ6BmZmNZ",
"zCZDzz1jjmmNypVZVVVmgNVNgNhMnntnmimnnnn imVNZmNZ",
"zZZDzz,jjzNmqiZVZVZgmVVVanbnhbnamninnmnniiCmZmmZ",
"zZZDzz1igjnNepVVBVSggZVghnnnMtbnrnzinnnniiCmZNmA",
"zZZDzz1eudNNqezZmAgmgVVghhnnnscnrrgginiiiiCmZmmC",
"nACDnn,yeqjd,iyzgznyygigrrhgxxxnrr8iiiiiiimmAmmZ",
"zCCD$n,,,qyy,4yyyyyyyyyy42rrtrtr0r>,iiiiiim.ZmmZ",
"kCCD .CNCCSCACCAAZZAZSZSAZAAAZAZAZCACCACVC+4mmmA",
"zCCD%zgnxzzzzzzzznkzgngnzzzzzznzmmNmmNnzn n2AmmZ",
"zgZ5nnknNmNmNNnnzzzzknnnzzzzzzzznnngzzzmmmmmZm Z",
"zC$mmNnmmNnNCCCAZAAZCCCCAZZZZAZZCCCCAACAZAAAZZ=Z",
"zo+mmmNmmmNnNnNNmmmNNmNNNNmmmmmmmmNNmNmmmmmm.m+Z",
"tmmnmkkkkkkkkkNnNmnzgggggggnnmmmNmNmmNmmmmmmmmmm"
};
